<?xml version="1.0" encoding="UTF-8" standalone="no"?><!DOCTYPE svg PUBLIC "-//W3C//DTD SVG 1.1//EN" "http://www.w3.org/Graphics/SVG/1.1/DTD/svg11.dtd"><svg width="100%" height="100%" viewBox="0 0 64 61" version="1.1" xmlns="http://www.w3.org/2000/svg" xmlns:xlink="http://www.w3.org/1999/xlink" xml:space="preserve" style="fill-rule:evenodd;clip-rule:evenodd;stroke-linejoin:round;stroke-miterlimit:1.41421;"><rect id="Artboard1" x="0" y="0" width="63.843" height="60.851" style="fill:none;"/><g><path d="M15.094,56.834l0,-3.253l0.59,0l0,0.611c0.233,-0.455 0.573,-0.683 1.018,-0.683c0.06,0 0.123,0.005 0.189,0.015l0,0.551c-0.102,-0.033 -0.192,-0.05 -0.27,-0.05c-0.373,0 -0.686,0.221 -0.937,0.664l0,2.145l-0.59,0Z" style="fill-rule:nonzero;"/><path d="M19.988,56.729c-0.396,0.12 -0.734,0.18 -1.016,0.18c-0.479,0 -0.87,-0.159 -1.172,-0.478c-0.303,-0.318 -0.454,-0.731 -0.454,-1.238c0,-0.494 0.133,-0.898 0.4,-1.213c0.266,-0.316 0.607,-0.474 1.023,-0.474c0.393,0 0.697,0.14 0.912,0.42c0.214,0.279 0.322,0.677 0.322,1.192l-0.003,0.182l-2.052,0c0.086,0.773 0.464,1.159 1.135,1.159c0.246,0 0.547,-0.065 0.905,-0.197l0,0.467Zm-2.013,-1.872l1.435,0c0,-0.605 -0.226,-0.907 -0.677,-0.907c-0.454,0 -0.706,0.302 -0.758,0.907Z" style="fill-rule:nonzero;"/><path d="M22.698,56.421c-0.353,0.325 -0.694,0.488 -1.021,0.488c-0.27,0 -0.493,-0.085 -0.671,-0.253c-0.178,-0.169 -0.267,-0.382 -0.267,-0.64c0,-0.355 0.15,-0.628 0.448,-0.819c0.299,-0.191 0.726,-0.286 1.284,-0.286l0.14,0l0,-0.392c0,-0.378 -0.193,-0.566 -0.581,-0.566c-0.311,0 -0.648,0.095 -1.009,0.287l0,-0.488c0.397,-0.162 0.77,-0.243 1.117,-0.243c0.363,0 0.632,0.082 0.804,0.246c0.173,0.164 0.259,0.418 0.259,0.764l0,1.473c0,0.338 0.104,0.506 0.312,0.506c0.026,0 0.064,-0.004 0.114,-0.012l0.042,0.327c-0.134,0.064 -0.282,0.096 -0.444,0.096c-0.275,0 -0.451,-0.163 -0.527,-0.488Zm-0.087,-0.321l0,-0.842l-0.197,-0.006c-0.324,0 -0.585,0.062 -0.785,0.185c-0.2,0.122 -0.3,0.284 -0.3,0.483c0,0.142 0.05,0.262 0.15,0.36c0.1,0.098 0.222,0.147 0.366,0.147c0.245,0 0.501,-0.109 0.766,-0.327Z" style="fill-rule:nonzero;"/><path d="M25.678,56.909c-0.439,0 -0.803,-0.163 -1.093,-0.488c-0.289,-0.326 -0.434,-0.736 -0.434,-1.231c0,-0.53 0.143,-0.942 0.43,-1.237c0.286,-0.296 0.686,-0.444 1.199,-0.444c0.254,0 0.537,0.035 0.851,0.105l0,0.494c-0.334,-0.097 -0.605,-0.146 -0.815,-0.146c-0.302,0 -0.544,0.113 -0.726,0.34c-0.183,0.226 -0.274,0.528 -0.274,0.906c0,0.365 0.093,0.66 0.281,0.886c0.188,0.226 0.433,0.339 0.737,0.339c0.27,0 0.547,-0.069 0.833,-0.207l0,0.509c-0.382,0.116 -0.711,0.174 -0.989,0.174Z" style="fill-rule:nonzero;"/><path d="M28.526,56.909c-0.299,0 -0.533,-0.086 -0.7,-0.258c-0.168,-0.172 -0.252,-0.41 -0.252,-0.716l0,-1.91l-0.407,0l0,-0.444l0.407,0l0,-0.59l0.59,-0.057l0,0.647l0.851,0l0,0.444l-0.851,0l0,1.803c0,0.425 0.184,0.637 0.551,0.637c0.078,0 0.173,-0.012 0.285,-0.038l0,0.407c-0.182,0.05 -0.34,0.075 -0.474,0.075Z" style="fill-rule:nonzero;"/><rect x="29.671" y="54.698" width="2.159" height="0.368" style="fill-rule:nonzero;"/><path d="M32.585,56.834l1.237,-1.68l-1.201,-1.573l0.701,0l0.949,1.252l0.86,-1.252l0.575,0l-1.127,1.651l1.225,1.602l-0.7,0l-0.98,-1.288l-0.946,1.288l-0.593,0Z" style="fill-rule:nonzero;"/><path d="M37.649,56.909c-0.299,0 -0.533,-0.086 -0.7,-0.258c-0.168,-0.172 -0.252,-0.41 -0.252,-0.716l0,-1.91l-0.407,0l0,-0.444l0.407,0l0,-0.59l0.59,-0.057l0,0.647l0.851,0l0,0.444l-0.851,0l0,1.803c0,0.425 0.184,0.637 0.551,0.637c0.078,0 0.173,-0.012 0.285,-0.038l0,0.407c-0.182,0.05 -0.34,0.075 -0.474,0.075Z" style="fill-rule:nonzero;"/><path d="M38.967,56.834l0,-3.253l0.59,0l0,0.611c0.234,-0.455 0.573,-0.683 1.019,-0.683c0.059,0 0.122,0.005 0.188,0.015l0,0.551c-0.102,-0.033 -0.191,-0.05 -0.269,-0.05c-0.374,0 -0.686,0.221 -0.938,0.664l0,2.145l-0.59,0Z" style="fill-rule:nonzero;"/><path d="M43.511,56.834l0,-0.611c-0.314,0.457 -0.694,0.686 -1.141,0.686c-0.284,0 -0.51,-0.09 -0.677,-0.268c-0.168,-0.179 -0.252,-0.42 -0.252,-0.724l0,-2.336l0.59,0l0,2.145c0,0.243 0.036,0.417 0.106,0.519c0.071,0.103 0.19,0.155 0.355,0.155c0.36,0 0.699,-0.237 1.019,-0.71l0,-2.109l0.59,0l0,3.253l-0.59,0Z" style="fill-rule:nonzero;"/><path d="M46.554,56.909c-0.44,0 -0.804,-0.163 -1.094,-0.488c-0.289,-0.326 -0.434,-0.736 -0.434,-1.231c0,-0.53 0.143,-0.942 0.43,-1.237c0.286,-0.296 0.686,-0.444 1.199,-0.444c0.254,0 0.538,0.035 0.851,0.105l0,0.494c-0.333,-0.097 -0.605,-0.146 -0.815,-0.146c-0.301,0 -0.543,0.113 -0.726,0.34c-0.183,0.226 -0.274,0.528 -0.274,0.906c0,0.365 0.094,0.66 0.282,0.886c0.187,0.226 0.433,0.339 0.736,0.339c0.27,0 0.547,-0.069 0.833,-0.207l0,0.509c-0.381,0.116 -0.711,0.174 -0.988,0.174Z" style="fill-rule:nonzero;"/><path d="M49.402,56.909c-0.3,0 -0.533,-0.086 -0.701,-0.258c-0.168,-0.172 -0.252,-0.41 -0.252,-0.716l0,-1.91l-0.407,0l0,-0.444l0.407,0l0,-0.59l0.59,-0.057l0,0.647l0.851,0l0,0.444l-0.851,0l0,1.803c0,0.425 0.184,0.637 0.552,0.637c0.077,0 0.172,-0.012 0.284,-0.038l0,0.407c-0.182,0.05 -0.339,0.075 -0.473,0.075Z" style="fill-rule:nonzero;"/></g><path d="M45.171,44.541l8.064,0l4.862,5.05l-7.948,0l-4.978,-5.05Z" style="fill:#4d4ed6;stroke:#000;stroke-width:0.6px;"/><path d="M31.141,49.591l-6.407,0l0,-25.915l-19.853,-19.853l8.059,0l11.794,11.794l0,-11.619l6.411,0l0,4.836l-0.004,0l0,13.149l0.585,0.625l3.555,3.556c8.057,-2.04 10.893,-6.256 11.224,-11.719c0.284,-4.695 -4.479,-5.611 -11.297,-5.611l-2.056,-0.023l3.62,-3.032l1.763,-1.781c4.374,0 7.727,0.965 10.058,2.896c2.331,1.93 3.496,4.733 3.496,8.41c0,6.079 -6.369,12.508 -12.509,15.054l11.607,12.056l-8.112,0l-11.934,-12.108l0,19.285Z" style="fill:#ff007c;stroke:#000;stroke-width:0.6px;stroke-linecap:round;"/><path d="M31.141,49.591l-6.407,0l0,-25.915l-19.853,-19.853l8.059,0l11.794,11.794l0,-11.619l6.411,0l0,4.836l-0.004,0l0,13.149l0.585,0.625l3.555,3.556c8.057,-2.04 10.893,-6.256 11.224,-11.719c0.284,-4.695 -4.479,-5.611 -11.297,-5.611l-2.056,-0.023l3.62,-3.032l1.763,-1.781c4.374,0 7.727,0.965 10.058,2.896c2.331,1.93 3.496,4.733 3.496,8.41c0,6.079 -6.369,12.508 -12.509,15.054l11.607,12.056l-8.112,0l-11.934,-12.108l0,19.285Z" style="fill:#ff004e;stroke:#000;stroke-width:0.6px;stroke-linecap:round;"/><path d="M45.171,44.541l8.064,0l4.862,5.05l-7.948,0l-4.978,-5.05Z" style="fill:#405ef2;stroke:#000;stroke-width:0.6px;"/><g><path d="M47.038,43.104l8.063,0l4.862,5.05l-7.948,0l-4.977,-5.05Z" style="fill:none;stroke:#fff;stroke-width:0.6px;"/><path d="M33.007,48.154l-6.407,0l0,-25.915l-19.852,-19.853l8.059,0l11.793,11.794l0,-11.619l6.411,0l0,4.837l-0.004,0l0,13.149l0.585,0.625l3.555,3.555c8.057,-2.04 10.893,-6.256 11.224,-11.719c0.284,-4.695 -4.479,-5.61 -11.297,-5.61l-2.056,-0.024l3.62,-3.032l1.763,-1.781c4.374,0 7.727,0.965 10.058,2.896c2.331,1.93 3.497,4.734 3.497,8.41c0,6.079 -6.37,12.508 -12.51,15.055l11.607,12.055l-8.112,0l-11.934,-12.108l0,19.285Z" style="fill:none;stroke:#fff;stroke-width:0.6px;stroke-linecap:round;"/></g><g><path d="M45.112,46.882l8.063,0l4.862,5.049l-7.948,0l-4.977,-5.049Z" style="fill:none;stroke:#000;stroke-width:0.6px;"/><path d="M31.082,51.931l-6.408,0l0,-25.915l-19.852,-19.852l8.059,0l11.793,11.793l0,-11.619l6.412,0l0,4.837l-0.004,0l0,13.149l0.584,0.625l3.556,3.556c8.057,-2.04 10.893,-6.256 11.224,-11.72c0.284,-4.694 -4.479,-5.61 -11.298,-5.61l-2.055,-0.024l3.62,-3.032l1.763,-1.781c4.374,0 7.727,0.966 10.058,2.896c2.331,1.931 3.496,4.734 3.496,8.41c0,6.079 -6.369,12.508 -12.51,15.055l11.608,12.056l-8.112,0l-11.934,-12.108l0,19.284Z" style="fill:none;stroke:#000;stroke-width:0.6px;stroke-linecap:round;"/></g></svg>